<?xml version="1.0" encoding="UTF-8" standalone="no"?><svg xmlns="http://www.w3.org/2000/svg" height="48" viewBox="0 0 48 48"><path d="M23.87.99h.26q7 0 13.07 4.12 1.24.88 2.62 2.15 1.63 1.6 2.12 2.3 1.28 1.63 1.93 2.77Q47 17.79 47 23.87v.26q0 7-4.12 13.07-.88 1.24-2.16 2.61-1.6 1.64-2.29 2.13-1.63 1.27-2.77 1.93Q30.2 47 24.13 47h-.26q-7 0-13.07-4.11-1.24-.89-2.62-2.16-1.63-1.6-2.12-2.29-1.28-1.63-1.93-2.78Q.99 30.21.99 24.13v-.26q0-7 4.12-13.08Q6 9.55 7.27 8.18q1.6-1.63 2.29-2.12 1.63-1.28 2.77-1.93Q17.8.99 23.87.99z" fill="#0f0628"/><path d="M18.8 35.38c10.56 0 16.34-8.76 16.34-16.34l-.01-.74A11.7 11.7 0 0038 15.32c-1.03.46-2.14.76-3.3.9a5.78 5.78 0 002.53-3.18c-1.11.66-2.35 1.13-3.66 1.4a5.73 5.73 0 00-9.94 3.92c0 .45.06.89.15 1.31-4.77-.23-9-2.53-11.84-6a5.75 5.75 0 001.78 7.67 5.81 5.81 0 01-2.6-.71v.08c0 2.77 1.98 5.1 4.6 5.63a5.6 5.6 0 01-2.58.1 5.74 5.74 0 005.36 3.99 11.52 11.52 0 01-8.5 2.39 16.34 16.34 0 008.8 2.56" class="st1" fill="#a0ecc5"/></svg>